<?xml version="1.0" encoding="UTF-8"?>
<svg id="Layer_1" data-name="Layer 1" xmlns="http://www.w3.org/2000/svg" viewBox="0 0 79.05 47.48">
  <defs>
    <style>
      .cls-1 {
        fill: #ffffff;
      }
    </style>
  </defs>
  <path class="cls-1" d="m56.01,12.09l4.63,5.44c.53.61,1,1.11,1.19,1.4,1.38,1.38,2.16,3.24,2.16,5.17-.13,2.29-1.62,3.84-3,5.51l-3.24,3.8-1.69,1.97c-.06.07-.1.15-.11.24-.01.09,0,.18.04.26.04.08.1.15.18.2.08.05.17.07.26.07h16.89c2.58,0,5.83,2.17,5.64,5.46,0,1.5-.61,2.93-1.68,3.99-1.07,1.06-2.53,1.65-4.05,1.66h-26.45c-1.74,0-6.42.19-7.73-3.8-.28-.83-.32-1.73-.11-2.58.38-1.26.98-2.45,1.78-3.51,1.33-1.97,2.77-3.94,4.19-5.85,1.83-2.5,3.71-4.93,5.56-7.48.07-.08.1-.19.1-.29s-.04-.21-.1-.29l-6.72-7.88c-.04-.06-.1-.1-.17-.14-.06-.03-.14-.05-.21-.05s-.14.02-.21.05c-.07.03-.12.08-.17.14-1.8,2.39-9.68,13-11.36,15.15-1.68,2.15-5.82,2.27-8.11,0l-10.51-10.4c-.07-.07-.15-.11-.25-.13-.09-.02-.19,0-.28.03-.09.04-.16.1-.22.17-.05.08-.08.17-.08.26v20c.02,1.42-.4,2.81-1.22,3.98-.82,1.17-1.99,2.05-3.34,2.54-.87.3-1.79.39-2.7.26-.91-.13-1.77-.47-2.52-.99-.75-.52-1.36-1.21-1.78-2.02-.42-.8-.64-1.69-.64-2.6V5.87c.06-1.3.53-2.54,1.35-3.56S3.29.56,4.56.21c1.09-.29,2.23-.28,3.32,0,1.09.29,2.07.86,2.86,1.65l16.16,15.95s.11.09.17.11c.06.02.13.03.2.03.07,0,.14-.03.2-.06.06-.03.11-.08.15-.14l11.48-15.66c.53-.64,1.2-1.15,1.95-1.51.75-.36,1.58-.55,2.41-.55h29.86c.82,0,1.62.17,2.37.51.74.33,1.41.82,1.94,1.43.54.61.94,1.32,1.17,2.09.24.77.3,1.58.19,2.38-.21,1.38-.92,2.65-2.01,3.55-1.08.91-2.46,1.39-3.88,1.37h-16.72c-.08,0-.17.03-.24.07-.07.04-.13.11-.17.18-.04.07-.06.16-.05.24,0,.08.03.16.08.23Z"/>
</svg>